<?xml version="1.0" encoding="UTF-8"?>
<!DOCTYPE svg PUBLIC "-//W3C//DTD SVG 1.1//EN" "http://www.w3.org/Graphics/SVG/1.1/DTD/svg11.dtd">
<!-- Creator: CorelDRAW 2020 (64-Bit) -->
<svg xmlns="http://www.w3.org/2000/svg" xml:space="preserve" width="91.4398mm" height="91.4398mm" version="1.1" style="shape-rendering:geometricPrecision; text-rendering:geometricPrecision; image-rendering:optimizeQuality; fill-rule:evenodd; clip-rule:evenodd"
viewBox="0 0 9143.98 9143.98"
 xmlns:xlink="http://www.w3.org/1999/xlink"
 xmlns:xodm="http://www.corel.com/coreldraw/odm/2003">
 <defs>
  <style type="text/css">
   <![CDATA[
    .fil0 {fill:#ffff}
    .fil1 {fill:#FFC872}
   ]]>
  </style>
 </defs>
 <g id="Capa_x0020_1">
  <metadata id="CorelCorpID_0Corel-Layer"/>
  <path class="fil0" d="M7570.32 6544.63c183.32,-2.12 308.8,-3.09 334.69,179.44 24.65,173.8 -57.01,278.13 -221.61,278.13l-65.37 0.08 -47.71 -0.48 0 -457.17zm-119.43 555.29l243.4 0c448.18,0 447.05,-653.41 0,-653.41l-243.75 0 0.35 653.41z"/>
  <path class="fil0" d="M3136.5 6544.63c183.32,-2.12 308.8,-3.09 334.69,179.44 24.66,173.8 -57.01,278.13 -221.61,278.13l-65.36 0.08 -47.72 -0.48 0 -457.17zm-119.42 555.29l243.4 0c448.17,0 447.05,-653.41 0,-653.41l-243.4 0 0 653.41z"/>
  <path class="fil0" d="M2330.76 7099.92l104.17 0 -0.69 -448.73c26.4,16.06 247.28,304.36 296.62,368.31 43.29,56.11 43.93,85.26 147.9,78.45l0 -649.47 -102.78 -1.97 0.24 451.45c-61.88,-78.01 -125.01,-150.04 -189.87,-234.89 -132.3,-173.08 -134.66,-216.56 -255.59,-216.56l0 653.41z"/>
  <polygon class="fil0" points="5005.77,7096.96 5125.55,7099.92 5125.72,6816.85 5435.65,6817.32 5435.52,7099.92 5553.13,7099.92 5553.36,6446.51 5435.52,6446.51 5435.52,6725.91 5125.69,6727.83 5125.72,6446.51 5005.74,6447.71 "/>
  <path class="fil0" d="M5814.77 6549.56c270.38,-57.64 290.3,212.97 60.24,212.97l-21.92 1.06 -38.32 -6.39 0 -207.64zm-117.79 550.36l117.61 0 0.22 -246.89 86.76 -5.72c26.51,34.16 67.19,101.53 94.16,142.87 67.55,103.55 51.61,117.12 203.21,107.03 -22.58,-40.64 -63.75,-94.63 -89.47,-133.56 -33.78,-51.12 -59.69,-88.31 -101.25,-135.97 65.27,-54.74 166.62,-88.16 129.51,-241.44 -40.86,-168.74 -275.83,-139.73 -440.42,-139.73l-0.33 653.41z"/>
  <path class="fil0" d="M1340.78 6545.04c85.18,-2.09 192.39,-12.21 211.16,76.69 21.85,103.51 -53.87,140.8 -143.42,140.8l-21.79 0.16 -45.95 -0.97 0 -216.68zm-117.03 552.91l117.18 -0.31 -0.05 -250.18c215.4,-6.57 122.3,255.04 339.98,252.46l44.36 -1.05 -189.44 -271.19c2.1,-1.87 5.51,-7.32 6.58,-5.27 1.07,2.03 5.13,-4.11 6.62,-5.15 47.28,-32.65 79.66,-34.08 108.42,-111.08 23.91,-64.02 9.39,-146.52 -26.07,-188.28 -70.66,-83.22 -270.73,-78.38 -407.58,-69.42l0 649.47z"/>
  <path class="fil0" d="M7063.9 6568.79l100.73 283.71 -209.61 -0.82 108.88 -282.89zm-318.91 528.83c124.26,7.43 123.34,18.88 176.16,-159.14 324.29,-2.7 262.34,-34.75 318.85,115.31 22.59,60 56.13,52.49 135.59,42.76 -15.47,-38.98 -237.13,-641.43 -269.57,-650.04l-107.08 1.25 -253.95 649.86z"/>
  <polygon class="fil0" points="6285.25,7099.92 6692.06,7099.92 6694.44,7002.11 6404.8,7001.77 6404.8,6817.08 6633.59,6815.6 6633.57,6723.16 6404.8,6718.27 6404.8,6544.72 6694.78,6544.32 6694.44,6446.51 6284.9,6446.51 "/>
  <polygon class="fil0" points="1812.02,7097.95 2219.83,7099.92 2219.83,7002.11 1930.98,7000.78 1930.99,6818.33 2159.77,6816 2159.76,6720.83 1930.99,6718.23 1930.99,6545.97 2219.83,6544.32 2219.83,6446.51 1812.02,6446.8 "/>
  <path class="fil0" d="M8129.45 6950.2c-22.52,22.23 -31.95,37.13 -43.19,73.58 177.69,190.77 537.48,18.85 410.85,-214.5 -51.27,-94.45 -217.72,-86.47 -265.52,-149.21 -41.5,-54.48 8.84,-110.88 61.72,-119.5 96.94,-15.81 107.81,39.41 174.45,36l36.78 -63.97c-70.54,-80.52 -228.58,-90.26 -312.08,-36.41 -90.74,58.53 -121.13,208.41 -35.84,281.24 75.32,64.33 248.64,52.51 250.9,157.56 1.51,70.59 -57,97.42 -125.08,92.53 -81.21,-5.82 -89.16,-51.7 -152.99,-57.32z"/>
  <g id="_2058202717024">
   <path class="fil0" d="M2692.49 3406.15c90.2,47.86 505.95,546.56 647.22,593.96l125.99 -202.94c33.89,62.77 232.93,1793.49 261.83,2028.32 70.82,7.45 969.72,-237.76 1119.9,-276.19 205.69,-52.66 991.24,-263.68 1135.74,-286.41l-215.77 -1697.14c59.54,35.06 136.85,110.04 183.12,128.19 80.5,-47.08 90.68,-81.65 149.41,-147.86 27.97,-31.54 50.1,-45.96 76.81,-78.95 63.81,-78.84 314.88,-366.03 339.17,-424.03 -22.39,-27.28 -51.36,-62.79 -75.77,-93.21l-439.87 -470.03c-158.96,-171.56 -382.33,-389.06 -591.17,-503.85 -120.07,-66.01 -378.58,-187.65 -527.69,-214.92 10.37,134.47 0.02,184.76 46.05,256.84 136.76,214.11 -261.7,295.1 -230.8,57.74 17,-130.62 53.55,54.24 31.98,-258.69l-139.51 30.19c-28.91,-199.89 -54.53,-395.48 -109.91,-575.86 -31.86,-103.8 -97.1,-264.4 -167.23,-345.42 -42.11,-48.67 -43.33,-51.82 -101.05,-22.76 73.52,133.96 118.33,89.31 214.26,422.34 30.29,105.16 101.71,427.03 86.6,530.01 -151.13,8.37 -236.35,-17.84 -371.72,-37.27 5.39,45.74 15.44,136.13 27.82,177.6 26.08,87.25 68.24,31.26 79.75,136.77 23.43,214.51 -315.65,193.88 -246.74,-31.02 26.73,-87.22 18.69,-28.96 -5.51,-176.26 -6.06,-36.98 -16.15,-143.23 -28.73,-169.88 -32.22,-68.16 -81.92,-45.67 -141.28,-43.77 -22.27,-169.9 -24.66,-393.26 10.05,-557.32 17.95,-84.8 47.96,-152.81 93.5,-205.23 78.52,-90.39 95.02,-23.84 157.77,-137.61 -451.77,-8.26 -318.91,831.73 -335.02,926.97 -418.57,142.45 -540.81,284.56 -726.3,624.21 -90.68,166.03 -405.12,760.98 -429.5,939.69 41.31,41.13 69.16,57.08 96.6,103.79z"/>
   <path class="fil1" d="M3727.53 5825.49c-28.9,-234.83 -227.94,-1965.55 -261.83,-2028.32l-125.99 202.94c-141.27,-47.4 -557.02,-546.1 -647.22,-593.96 34.6,78.11 331.43,453.25 415.61,557.99 75.2,93.57 46.38,142.8 36.12,285.71 -28.17,393.1 -72.69,817.06 -83.76,1208.88 55.33,47.27 594.74,346.15 667.07,366.76z"/>
   <path class="fil0" d="M4135.4 2133.46c6,-27.31 -80.86,-541.51 -77.1,-783.95 2.05,-132.29 16.43,-266.08 64.24,-377.41 96.88,-225.62 423.5,-315.39 584.12,427.39 37.18,171.92 67.19,409.71 76.58,590.11 3.93,75.22 -12.68,165.22 59.31,145.91l11.15 -34.13c0.61,-4.02 1.38,-8.1 1.84,-12.7 20.07,-202.5 -99.38,-1313.49 -497.19,-1341.47 -502.03,-35.29 -368.55,998.1 -293.5,1322.73 14.46,62.56 10.38,58.45 70.55,63.52z"/>
  </g>
  <path class="fil0" d="M3865.37 6882.16l0 217.76 119.27 0 0 -217.76c0,-77.82 190.56,-341.77 233.28,-433.19 -114.03,-7.97 -122.15,-10.11 -153.39,49.62l-139.52 254.99c-37.28,-47.29 -63.25,-115.6 -93.08,-170.23 -82.97,-151.93 -46.96,-140.85 -200.65,-135.28 42.84,93.84 234.09,354.27 234.09,434.09z"/>
  <path class="fil0" d="M620.42 6544.32l197.47 1.92 -0.03 553.68 118.31 -3.21 -0.11 -551.99 196.12 -1.62 -0.03 -92.29c-86.19,-11.27 -404.27,-4.3 -508,-4.3l-3.73 97.81z"/>
  <path class="fil0" d="M4410.06 6544.32l197.62 2.89 -0.09 552.71 117.78 0 0.05 -550.32c64.18,-10.62 126.92,-5.74 196.09,-5.28l0 -97.81 -510.37 0 -1.08 97.81z"/>
  <path class="fil0" d="M5150.85 7927.88l48.79 -1.53 6.19 -240.26c12.57,9.58 8.83,5.11 19.28,19.2 6.2,8.35 10.89,16.85 16.88,27.99 10.17,18.9 18.69,35.82 30.2,56.55 20.46,36.84 30.58,78.21 69.02,93.94 53.27,-23.06 67.88,-121.85 127.08,-192.3 1.29,-1.54 3.91,-4.43 6.04,-6.47l1.8 238.58 54 4.3 0.01 -359.27c-90.65,0.2 -71.01,19.68 -113.23,97.64 -21.77,40.18 -51,109.23 -75.7,138.91l-109.96 -202.87c-23.25,-41.64 -22.64,-33.52 -80.4,-33.68l0 359.27z"/>
  <path class="fil0" d="M6282.35 7880.16l-1.72 -263.83c114.64,-7.6 181.71,8.92 184.5,126.53 2.95,124.8 -65.9,145.17 -182.78,137.3zm-63.9 47.72l114.11 0c265.12,0 264.77,-359.27 0,-359.27l-114.11 0 0 359.27z"/>
  <path class="fil0" d="M5832.69 7631.16c166.18,-65.81 207.22,192.18 89.44,235.1 -167.03,60.87 -220.84,-183.06 -89.44,-235.1zm-0.01 -54.97c-231.48,59.03 -147.32,403.89 90.23,344.72 215.81,-53.75 146.86,-405.18 -90.23,-344.72z"/>
  <path class="fil0" d="M2745.01 7627.45c31.38,5.48 14.73,-19.65 33.85,21.22 5.73,12.23 5.09,25.3 3.02,38.06 -5.06,31.12 -15.27,37.3 -41.4,45.28l-68.1 3.97 -0.04 -116.32 72.67 7.79zm-141.9 300.43l61.94 0 0 -137.77c80,-10.65 56.16,23.84 139.81,134.4l67.56 4.15 -97.79 -153.7c131.49,-104.75 66.89,-206.35 -80.63,-206.35l-90.89 0 0 359.27z"/>
  <path class="fil0" d="M3552.91 7642.04l58.4 152.99 -110.56 -2.66 52.16 -150.33zm-163.56 285.3l58.91 -0.29 33.56 -83.15 149.04 -2.88 36.67 82.25 59.45 3.74 -136.61 -357.78c-95.57,-1.27 -72.75,20.37 -128.51,167.87 -23.35,61.74 -50.34,125 -72.51,190.24z"/>
  <path class="fil0" d="M4478.21 7753.7c0,236.93 290.79,231.9 290.79,10.89l0 -195.98 -62.02 0 0 195.98c0,111.43 -93.43,145.45 -144.44,81.76 -32.1,-40.09 -20.6,-208.06 -20.6,-273.44l-63.68 -5.24 -0.05 186.03z"/>
  <path class="fil0" d="M6778.11 7794.62c5.68,-35.2 12.62,-50.39 24.04,-82.35l34.24 -69.07 50.25 151.19 -108.53 0.23zm-115.95 132.57c80.24,-0.35 72.75,-15.7 91.82,-85.88l155.63 0.01 31.23 85.03 60.29 1.97 -136.97 -356.96 -66.5 -3.27 -135.5 359.1z"/>
  <polygon class="fil0" points="3032.14,7925.91 3251.97,7927.88 3251.97,7881.84 3096.55,7881.64 3095.72,7767.36 3219.46,7767.17 3219.29,7721.13 3093.05,7720.79 3094.58,7614.87 3252.31,7614.65 3251.97,7568.61 3032.13,7569.12 "/>
  <path class="fil0" d="M2432.83 7873.53c-42.97,-66.08 -34.43,8.38 -129.88,-0.43 -124.22,-11.46 -122.36,-200.84 -34.43,-239.79 92.03,-40.75 109.96,36.02 160.17,-2.05 2.57,-36.48 -22.7,-48.88 -66.21,-57.89 -38.95,-8.07 -77.2,-4.37 -111.9,9.17 -59.31,23.16 -105.77,83.76 -107.61,160.95 -4.43,185.23 217.89,240.96 289.86,130.04z"/>
  <path class="fil0" d="M4052 7622.84l107.69 3.87 -0.18 301.17 63.36 0 0 -301.19c45.22,-6.56 73.79,4.01 104.78,-14.62l0 -32.68c-38.83,-24.23 -219.58,-10.78 -276,-10.78l0.35 54.23z"/>
  <g id="_2058202707424">
   <path class="fil0" d="M17111.52 4777.51c154.29,81.86 865.42,934.87 1107.06,1015.94l215.49 -347.11c57.98,107.35 398.42,3067.69 447.87,3469.37 121.13,12.75 1658.66,-406.68 1915.54,-472.42 351.83,-90.06 1695.48,-451.02 1942.65,-489.88l-369.06 -2902.92c101.84,59.98 234.06,188.23 313.21,219.27 137.69,-80.53 155.1,-139.66 255.56,-252.91 47.84,-53.94 85.7,-78.61 131.38,-135.05 109.15,-134.85 538.6,-626.08 580.14,-725.29 -38.28,-46.65 -87.85,-107.4 -129.59,-159.43l-752.39 -803.97c-271.89,-293.44 -653.97,-665.48 -1011.17,-861.82 -205.39,-112.91 -647.56,-320.97 -902.61,-367.61 17.74,230.01 0.04,316.02 78.77,439.32 233.92,366.23 -447.64,504.75 -394.77,98.76 29.08,-223.42 91.59,92.78 54.69,-442.49l-238.62 51.64c-49.45,-341.9 -93.27,-676.44 -188,-984.99 -54.49,-177.54 -166.09,-452.24 -286.04,-590.82 -72.03,-83.25 -74.11,-88.64 -172.85,-38.94 125.75,229.14 202.41,152.76 366.49,722.41 51.82,179.86 173.98,730.42 148.13,906.56 -258.5,14.31 -404.27,-30.52 -635.81,-63.76 9.21,78.25 26.41,232.86 47.58,303.79 44.61,149.23 116.72,53.47 136.41,233.94 40.07,366.92 -539.91,331.62 -422.04,-53.05 45.72,-149.19 31.97,-49.53 -9.42,-301.49 -10.38,-63.27 -27.64,-245 -49.15,-290.59 -55.11,-116.58 -140.11,-78.11 -241.65,-74.85 -38.1,-290.62 -42.19,-672.67 17.19,-953.29 30.7,-145.04 82.02,-261.37 159.93,-351.04 134.31,-154.6 162.52,-40.77 269.86,-235.37 -772.75,-14.13 -545.49,1422.65 -573.04,1585.55 -715.96,243.65 -925.04,486.73 -1242.32,1067.7 -155.1,283.98 -692.94,1301.63 -734.64,1607.31 70.66,70.35 118.29,97.63 165.22,177.53z"/>
   <path class="fil1" d="M18881.94 8915.71c-49.45,-401.68 -389.89,-3362.02 -447.87,-3469.37l-215.49 347.11c-241.64,-81.07 -952.77,-934.08 -1107.06,-1015.94 59.18,133.6 566.9,775.27 710.9,954.42 128.62,160.04 79.33,244.25 61.78,488.7 -48.19,672.38 -124.34,1397.55 -143.27,2067.75 94.63,80.86 1017.29,592.08 1141.01,627.33z"/>
   <path class="fil0" d="M19579.57 2600.61c10.27,-46.73 -138.3,-926.25 -131.87,-1340.92 3.51,-226.28 28.1,-455.12 109.88,-645.55 165.71,-385.91 724.39,-539.46 999.12,731.03 63.6,294.07 114.92,700.8 130.99,1009.36 6.72,128.68 -21.69,282.6 101.45,249.58l19.06 -58.37c1.05,-6.88 2.36,-13.86 3.15,-21.73 34.33,-346.38 -169.98,-2246.69 -850.42,-2294.54 -858.72,-60.36 -630.39,1707.22 -502.03,2262.49 24.74,107 17.76,99.97 120.67,108.65z"/>
  </g>
 </g>
</svg>
