<?xml version="1.0" encoding="UTF-8"?>
<!DOCTYPE svg PUBLIC "-//W3C//DTD SVG 1.1//EN" "http://www.w3.org/Graphics/SVG/1.1/DTD/svg11.dtd">
<!-- Creator: CorelDRAW 2020 (64-Bit) -->
<svg xmlns="http://www.w3.org/2000/svg" xml:space="preserve" width="91.4398mm" height="91.4398mm" version="1.1" style="shape-rendering:geometricPrecision; text-rendering:geometricPrecision; image-rendering:optimizeQuality; fill-rule:evenodd; clip-rule:evenodd"
viewBox="0 0 9143.98 9143.98"
 xmlns:xlink="http://www.w3.org/1999/xlink"
 xmlns:xodm="http://www.corel.com/coreldraw/odm/2003">
 <defs>
  <style type="text/css">
   <![CDATA[
    .fil0 {fill:#ffff}
    .fil2 {fill:#FDFDFD}
    .fil1 {fill:#FFC872}
   ]]>
  </style>
 </defs>
 <g id="Capa_x0020_1">
  <metadata id="CorelCorpID_0Corel-Layer"/>
  <path class="fil0" d="M-6978.87 3491.92c69.11,36.67 387.66,418.77 495.9,455.09l96.53 -155.49c25.97,48.09 178.47,1374.16 200.62,1554.09 54.26,5.71 742.99,-182.17 858.06,-211.62 157.6,-40.34 759.48,-202.03 870.2,-219.44l-165.32 -1300.35c45.62,26.87 104.85,84.32 140.3,98.22 61.68,-36.07 69.48,-62.56 114.48,-113.29 21.43,-24.16 38.39,-35.21 58.85,-60.49 48.89,-60.41 241.26,-280.45 259.87,-324.89 -17.15,-20.9 -39.35,-48.11 -58.05,-71.42l-337.03 -360.13c-121.79,-131.45 -292.94,-298.1 -452.95,-386.05 -92,-50.58 -290.07,-143.78 -404.32,-164.67 7.95,103.03 0.02,141.56 35.29,196.79 104.78,164.05 -200.52,226.1 -176.84,44.24 13.03,-100.08 41.03,41.56 24.5,-198.21l-106.89 23.13c-22.15,-153.15 -41.78,-303.01 -84.21,-441.22 -24.41,-79.53 -74.4,-202.58 -128.13,-264.66 -32.27,-37.29 -33.2,-39.7 -77.43,-17.44 56.33,102.64 90.67,68.43 164.17,323.6 23.21,80.57 77.93,327.19 66.35,406.09 -115.79,6.41 -181.09,-13.67 -284.81,-28.56 4.13,35.05 11.83,104.31 21.32,136.08 19.98,66.85 52.28,23.95 61.1,104.79 17.95,164.36 -241.85,148.55 -189.05,-23.76 20.48,-66.83 14.32,-22.19 -4.22,-135.05 -4.65,-28.34 -12.38,-109.75 -22.02,-130.17 -24.68,-52.22 -62.76,-34.99 -108.24,-33.53 -17.07,-130.18 -18.9,-301.32 7.7,-427.02 13.75,-64.97 36.74,-117.08 71.64,-157.25 60.16,-69.25 72.8,-18.26 120.88,-105.43 -346.15,-6.33 -244.35,637.27 -256.69,710.24 -320.71,109.14 -414.37,218.03 -556.49,478.27 -69.48,127.21 -310.4,583.06 -329.08,719.99 31.65,31.51 52.99,43.73 74.01,79.52z"/>
  <path class="fil1" d="M-6185.82 5345.61c-22.15,-179.93 -174.65,-1506 -200.62,-1554.09l-96.53 155.49c-108.24,-36.32 -426.79,-418.42 -495.9,-455.09 26.51,59.85 253.94,347.28 318.44,427.53 57.62,71.69 35.54,109.41 27.68,218.91 -21.59,301.19 -55.7,626.03 -64.18,926.24 42.39,36.22 455.69,265.22 511.11,281.01z"/>
  <path class="fil0" d="M-2536.71 6785.49c183.32,-2.12 308.8,-3.09 334.69,179.44 24.65,173.8 -57.01,278.13 -221.61,278.13l-65.37 0.08 -47.71 -0.48 0 -457.17zm-119.43 555.29l243.4 0c448.18,0 447.05,-653.41 0,-653.41l-243.75 0 0.35 653.41z"/>
  <path class="fil0" d="M-6970.53 6785.49c183.32,-2.12 308.8,-3.09 334.69,179.44 24.66,173.8 -57.01,278.13 -221.61,278.13l-65.36 0.08 -47.72 -0.48 0 -457.17zm-119.42 555.29l243.4 0c448.17,0 447.05,-653.41 0,-653.41l-243.4 0 0 653.41z"/>
  <path class="fil0" d="M-7776.27 7340.78l104.17 0 -0.69 -448.73c26.4,16.06 247.28,304.36 296.62,368.31 43.29,56.11 43.93,85.26 147.9,78.45l0 -649.47 -102.78 -1.97 0.24 451.45c-61.88,-78.01 -125.01,-150.04 -189.87,-234.89 -132.3,-173.08 -134.66,-216.56 -255.59,-216.56l0 653.41z"/>
  <polygon class="fil0" points="-5101.26,7337.82 -4981.48,7340.78 -4981.31,7057.71 -4671.38,7058.18 -4671.51,7340.78 -4553.9,7340.78 -4553.67,6687.37 -4671.51,6687.37 -4671.51,6966.77 -4981.34,6968.69 -4981.31,6687.37 -5101.29,6688.57 "/>
  <path class="fil0" d="M-4292.26 6790.42c270.38,-57.64 290.3,212.97 60.24,212.97l-21.92 1.06 -38.32 -6.39 0 -207.64zm-117.79 550.36l117.61 0 0.22 -246.89 86.76 -5.72c26.51,34.16 67.19,101.53 94.16,142.87 67.55,103.55 51.61,117.12 203.21,107.03 -22.58,-40.64 -63.75,-94.63 -89.47,-133.56 -33.78,-51.12 -59.69,-88.31 -101.25,-135.97 65.27,-54.74 166.62,-88.16 129.51,-241.44 -40.86,-168.74 -275.83,-139.73 -440.42,-139.73l-0.33 653.41z"/>
  <path class="fil0" d="M-8766.25 6785.9c85.18,-2.09 192.39,-12.21 211.16,76.69 21.85,103.51 -53.87,140.8 -143.42,140.8l-21.79 0.16 -45.95 -0.97 0 -216.68zm-117.03 552.91l117.18 -0.31 -0.05 -250.18c215.4,-6.57 122.3,255.04 339.98,252.46l44.36 -1.05 -189.44 -271.19c2.1,-1.87 5.51,-7.32 6.58,-5.27 1.07,2.03 5.13,-4.11 6.62,-5.15 47.28,-32.65 79.66,-34.08 108.42,-111.08 23.91,-64.02 9.39,-146.52 -26.07,-188.28 -70.66,-83.22 -270.73,-78.38 -407.58,-69.42l0 649.47z"/>
  <path class="fil0" d="M-3043.13 6809.65l100.73 283.71 -209.61 -0.82 108.88 -282.89zm-318.91 528.83c124.26,7.43 123.34,18.88 176.16,-159.14 324.29,-2.7 262.34,-34.75 318.85,115.31 22.59,60 56.13,52.49 135.59,42.76 -15.47,-38.98 -237.13,-641.43 -269.57,-650.04l-107.08 1.25 -253.95 649.86z"/>
  <polygon class="fil0" points="-3821.78,7340.78 -3414.97,7340.78 -3412.59,7242.97 -3702.23,7242.63 -3702.23,7057.94 -3473.44,7056.46 -3473.46,6964.02 -3702.23,6959.13 -3702.23,6785.58 -3412.25,6785.18 -3412.59,6687.37 -3822.13,6687.37 "/>
  <polygon class="fil0" points="-8295.01,7338.81 -7887.2,7340.78 -7887.2,7242.97 -8176.05,7241.64 -8176.04,7059.19 -7947.26,7056.86 -7947.27,6961.69 -8176.04,6959.09 -8176.04,6786.83 -7887.2,6785.18 -7887.2,6687.37 -8295.01,6687.66 "/>
  <path class="fil0" d="M-1977.58 7191.06c-22.52,22.23 -31.95,37.13 -43.19,73.58 177.69,190.77 537.48,18.85 410.85,-214.5 -51.27,-94.45 -217.72,-86.47 -265.52,-149.21 -41.5,-54.48 8.84,-110.88 61.72,-119.5 96.94,-15.81 107.81,39.41 174.45,36l36.78 -63.97c-70.54,-80.52 -228.58,-90.26 -312.08,-36.41 -90.74,58.53 -121.13,208.41 -35.84,281.24 75.32,64.33 248.64,52.51 250.9,157.56 1.51,70.59 -57,97.42 -125.08,92.53 -81.21,-5.82 -89.16,-51.7 -152.99,-57.32z"/>
  <path class="fil0" d="M-5873.32 2516.79c4.6,-20.93 -61.95,-414.91 -59.07,-600.66 1.57,-101.36 12.59,-203.87 49.22,-289.17 74.23,-172.87 324.49,-241.65 447.55,327.46 28.49,131.73 51.48,313.92 58.68,452.14 3.01,57.64 -9.72,126.59 45.44,111.8l8.54 -26.15c0.47,-3.08 1.06,-6.21 1.41,-9.73 15.38,-155.16 -76.14,-1006.4 -380.94,-1027.83 -384.66,-27.04 -282.38,764.74 -224.88,1013.47 11.08,47.93 7.95,44.78 54.05,48.67z"/>
  <path class="fil0" d="M-6241.66 7123.02l0 217.76 119.27 0 0 -217.76c0,-77.82 190.56,-341.77 233.28,-433.19 -114.03,-7.97 -122.15,-10.11 -153.39,49.62l-139.52 254.99c-37.28,-47.29 -63.25,-115.6 -93.08,-170.23 -82.97,-151.93 -46.96,-140.85 -200.65,-135.28 42.84,93.84 234.09,354.27 234.09,434.09z"/>
  <path class="fil0" d="M-9486.61 6785.18l197.47 1.92 -0.03 553.68 118.31 -3.21 -0.11 -551.99 196.12 -1.62 -0.03 -92.29c-86.19,-11.27 -404.27,-4.3 -508,-4.3l-3.73 97.81z"/>
  <path class="fil0" d="M-5696.97 6785.18l197.62 2.89 -0.09 552.71 117.78 0 0.05 -550.32c64.18,-10.62 126.92,-5.74 196.09,-5.28l0 -97.81 -510.37 0 -1.08 97.81z"/>
  <path class="fil0" d="M-4956.18 8168.74l48.79 -1.53 6.19 -240.26c12.57,9.58 8.83,5.11 19.28,19.2 6.2,8.35 10.89,16.85 16.88,27.99 10.17,18.9 18.69,35.82 30.2,56.55 20.46,36.84 30.58,78.21 69.02,93.94 53.27,-23.06 67.88,-121.85 127.08,-192.3 1.29,-1.54 3.91,-4.43 6.04,-6.47l1.8 238.58 54 4.3 0.01 -359.27c-90.65,0.2 -71.01,19.68 -113.23,97.64 -21.77,40.18 -51,109.23 -75.7,138.91l-109.96 -202.87c-23.25,-41.64 -22.64,-33.52 -80.4,-33.68l0 359.27z"/>
  <path class="fil0" d="M-3824.68 8121.02l-1.72 -263.83c114.64,-7.6 181.71,8.92 184.5,126.53 2.95,124.8 -65.9,145.17 -182.78,137.3zm-63.9 47.72l114.11 0c265.12,0 264.77,-359.27 0,-359.27l-114.11 0 0 359.27z"/>
  <path class="fil0" d="M-4274.34 7872.02c166.18,-65.81 207.22,192.18 89.44,235.1 -167.03,60.87 -220.84,-183.06 -89.44,-235.1zm-0.01 -54.97c-231.48,59.03 -147.32,403.89 90.23,344.72 215.81,-53.75 146.86,-405.18 -90.23,-344.72z"/>
  <path class="fil0" d="M-7362.02 7868.31c31.38,5.48 14.73,-19.65 33.85,21.22 5.73,12.23 5.09,25.3 3.02,38.06 -5.06,31.12 -15.27,37.3 -41.4,45.28l-68.1 3.97 -0.04 -116.32 72.67 7.79zm-141.9 300.43l61.94 0 0 -137.77c80,-10.65 56.16,23.84 139.81,134.4l67.56 4.15 -97.79 -153.7c131.49,-104.75 66.89,-206.35 -80.63,-206.35l-90.89 0 0 359.27z"/>
  <path class="fil0" d="M-6554.12 7882.9l58.4 152.99 -110.56 -2.66 52.16 -150.33zm-163.56 285.3l58.91 -0.29 33.56 -83.15 149.04 -2.88 36.67 82.25 59.45 3.74 -136.61 -357.78c-95.57,-1.27 -72.75,20.37 -128.51,167.87 -23.35,61.74 -50.34,125 -72.51,190.24z"/>
  <path class="fil0" d="M-5628.82 7994.56c0,236.93 290.79,231.9 290.79,10.89l0 -195.98 -62.02 0 0 195.98c0,111.43 -93.43,145.45 -144.44,81.76 -32.1,-40.09 -20.6,-208.06 -20.6,-273.44l-63.68 -5.24 -0.05 186.03z"/>
  <path class="fil0" d="M-3328.92 8035.48c5.68,-35.2 12.62,-50.39 24.04,-82.35l34.24 -69.07 50.25 151.19 -108.53 0.23zm-115.95 132.57c80.24,-0.35 72.75,-15.7 91.82,-85.88l155.63 0.01 31.23 85.03 60.29 1.97 -136.97 -356.96 -66.5 -3.27 -135.5 359.1z"/>
  <polygon class="fil0" points="-7074.89,8166.77 -6855.06,8168.74 -6855.06,8122.7 -7010.48,8122.5 -7011.31,8008.22 -6887.57,8008.03 -6887.74,7961.99 -7013.98,7961.65 -7012.45,7855.73 -6854.72,7855.51 -6855.06,7809.47 -7074.9,7809.98 "/>
  <path class="fil2" d="M-8766.25 7002.58l45.95 0.97 21.79 -0.16c89.55,0 165.27,-37.29 143.42,-140.8 -18.77,-88.9 -125.98,-78.78 -211.16,-76.69l0 216.68z"/>
  <path class="fil0" d="M-7674.2 8114.39c-42.97,-66.08 -34.43,8.38 -129.88,-0.43 -124.22,-11.46 -122.36,-200.84 -34.43,-239.79 92.03,-40.75 109.96,36.02 160.17,-2.05 2.57,-36.48 -22.7,-48.88 -66.21,-57.89 -38.95,-8.07 -77.2,-4.37 -111.9,9.17 -59.31,23.16 -105.77,83.76 -107.61,160.95 -4.43,185.23 217.89,240.96 289.86,130.04z"/>
  <path class="fil0" d="M-6055.03 7863.7l107.69 3.87 -0.18 301.17 63.36 0 0 -301.19c45.22,-6.56 73.79,4.01 104.78,-14.62l0 -32.68c-38.83,-24.23 -219.58,-10.78 -276,-10.78l0.35 54.23z"/>
  <g id="_2058318574848">
   <path class="fil0" d="M1384.68 4777.51c154.29,81.86 865.42,934.87 1107.06,1015.94l215.49 -347.11c57.98,107.35 398.42,3067.69 447.87,3469.37 121.13,12.75 1658.66,-406.68 1915.54,-472.42 351.83,-90.06 1695.48,-451.02 1942.65,-489.88l-369.06 -2902.92c101.84,59.98 234.06,188.23 313.21,219.27 137.69,-80.53 155.1,-139.66 255.56,-252.91 47.84,-53.94 85.7,-78.61 131.38,-135.05 109.15,-134.85 538.6,-626.08 580.14,-725.29 -38.28,-46.65 -87.85,-107.4 -129.59,-159.43l-752.39 -803.97c-271.89,-293.44 -653.97,-665.48 -1011.17,-861.82 -205.39,-112.91 -647.56,-320.97 -902.61,-367.61 17.74,230.01 0.04,316.02 78.77,439.32 233.92,366.23 -447.64,504.75 -394.77,98.76 29.08,-223.42 91.59,92.78 54.69,-442.49l-238.62 51.64c-49.45,-341.9 -93.27,-676.44 -188,-984.99 -54.49,-177.54 -166.09,-452.24 -286.04,-590.82 -72.03,-83.25 -74.11,-88.64 -172.85,-38.94 125.75,229.14 202.41,152.76 366.49,722.41 51.82,179.86 173.98,730.42 148.13,906.56 -258.5,14.31 -404.27,-30.52 -635.81,-63.76 9.21,78.25 26.41,232.86 47.58,303.79 44.61,149.23 116.72,53.47 136.41,233.94 40.07,366.92 -539.91,331.62 -422.04,-53.05 45.72,-149.19 31.97,-49.53 -9.42,-301.49 -10.38,-63.27 -27.64,-245 -49.15,-290.59 -55.11,-116.58 -140.11,-78.11 -241.65,-74.85 -38.1,-290.62 -42.19,-672.67 17.19,-953.29 30.7,-145.04 82.02,-261.37 159.93,-351.04 134.31,-154.6 162.52,-40.77 269.86,-235.37 -772.75,-14.13 -545.49,1422.65 -573.04,1585.55 -715.96,243.65 -925.04,486.73 -1242.32,1067.7 -155.1,283.98 -692.94,1301.63 -734.64,1607.31 70.66,70.35 118.29,97.63 165.22,177.53z"/>
   <path class="fil1" d="M3155.1 8915.71c-49.45,-401.68 -389.89,-3362.02 -447.87,-3469.37l-215.49 347.11c-241.64,-81.07 -952.77,-934.08 -1107.06,-1015.94 59.18,133.6 566.9,775.27 710.9,954.42 128.62,160.04 79.33,244.25 61.78,488.7 -48.19,672.38 -124.34,1397.55 -143.27,2067.75 94.63,80.86 1017.29,592.08 1141.01,627.33z"/>
   <path class="fil0" d="M3852.73 2600.61c10.27,-46.73 -138.3,-926.25 -131.87,-1340.92 3.51,-226.28 28.1,-455.12 109.88,-645.55 165.71,-385.91 724.39,-539.46 999.12,731.03 63.6,294.07 114.92,700.8 130.99,1009.36 6.72,128.68 -21.69,282.6 101.45,249.58l19.06 -58.37c1.05,-6.88 2.36,-13.86 3.15,-21.73 34.33,-346.38 -169.98,-2246.69 -850.42,-2294.54 -858.72,-60.36 -630.39,1707.22 -502.03,2262.49 24.74,107 17.76,99.97 120.67,108.65z"/>
  </g>
 </g>
</svg>
